<svg width="36" height="36" viewBox="0 0 36 36" fill="none" xmlns="http://www.w3.org/2000/svg">
<path d="M15.1537 10.577C17.2461 10.577 18.9422 8.88082 18.9422 6.78849C18.9422 4.69616 17.2461 3 15.1537 3C13.0614 3 11.3652 4.69617 11.3652 6.78849C11.3652 8.88082 13.0614 10.577 15.1537 10.577Z" stroke="black" stroke-width="1.5" stroke-linecap="round" stroke-linejoin="round"/>
<path d="M7.5 23.4269L7.5 18.5826C7.5 16.0613 9.54295 14.0312 12.0514 14.0312L18.8655 14.0312C21.3868 14.0312 23.4168 16.0742 23.4168 18.5826" stroke="black" stroke-width="1.5" stroke-linecap="round" stroke-linejoin="round"/>
<path d="M31.5 24C31.5 24.9833 31.3083 25.9583 30.925 26.8667C30.55 27.775 29.9917 28.6 29.3 29.3C28.6 30 27.775 30.55 26.8667 30.925C25.9583 31.3083 24.9833 31.5 24 31.5C23.0167 31.5 22.0417 31.3083 21.1333 30.925C20.225 30.5417 19.4 29.9917 18.7 29.3C18 28.6 17.45 27.775 17.075 26.8667C16.6917 25.9583 16.5 24.9833 16.5 24C16.5 22.0083 17.2917 20.1 18.7 18.7C20.1 17.2917 22.0083 16.5 24 16.5C25.9917 16.5 27.9 17.2917 29.3 18.7C30.7083 20.1 31.5 22.0083 31.5 24Z" fill="white" stroke="black" stroke-linecap="round" stroke-linejoin="round"/>
<path d="M24 21C22.7583 21 21.75 21.675 21.75 22.5C21.75 23.325 22.7583 24 24 24C25.2417 24 26.25 24.675 26.25 25.5C26.25 26.325 25.2417 27 24 27" stroke="black" stroke-linecap="round" stroke-linejoin="round"/>
<path d="M23.7637 19.5L23.7637 28.5" stroke="black" stroke-linecap="round" stroke-linejoin="round"/>
<path d="M24 21C24.8333 21 25.5583 21.3 25.95 21.75L24 21Z" stroke="black" stroke-linecap="round" stroke-linejoin="round"/>
<path d="M24 21L24 20.25" stroke="black" stroke-linecap="round" stroke-linejoin="round"/>
<path d="M24 27L24 27.75" stroke="black" stroke-linecap="round" stroke-linejoin="round"/>
<path d="M24.0008 27C23.1674 27 22.4424 26.7 22.0508 26.25L24.0008 27Z" stroke="black" stroke-linecap="round" stroke-linejoin="round"/>
</svg>
