<svg width="160" height="160" viewBox="0 0 160 160" fill="none" xmlns="http://www.w3.org/2000/svg"><path d="M15.211 36.775l-6.816 95.653c-.808 10.898 8.913 19.202 22.672 17.645l96.509-11.895a20.646 20.646 0 0013.511-7.729 20.238 20.238 0 004.159-14.887l-11.095-88.186a20.075 20.075 0 00-7.684-13.39 20.484 20.484 0 00-14.998-4.093L32.084 19.68c-11.672 1.438-15.573 4.017-16.873 17.095z" fill="#EFFAF3"/><mask id="a" style="mask-type:alpha" maskUnits="userSpaceOnUse" x="21" y="9" width="138" height="142"><path d="M28.428 36.775l-6.816 95.653c-.807 10.898 8.914 19.202 22.672 17.645l96.51-11.895a20.646 20.646 0 0013.51-7.729 20.239 20.239 0 004.16-14.887l-11.095-88.186a20.082 20.082 0 00-7.684-13.39 20.488 20.488 0 00-14.999-4.093L45.301 19.68C33.63 21.118 29.73 23.697 28.429 36.775z" fill="#EFFAF3"/></mask><g clip-path="url(#clip0_1689_84249)" mask="url(#a)"><path d="M37.782 92.103s-19.83 16.798-15.635 41.27c4.194 24.472 31.136 15.931 34.198 10.93 3.062-5.001 2.755-26.615 2.755-26.615L46.65 90.95l-8.868 1.153z" fill="#000"/><path d="M41.037 145.671a14.922 14.922 0 01-12.89-6.695.341.341 0 01.033-.374.328.328 0 01.226-.125.343.343 0 01.248.072.326.326 0 01.086.1c.214.378 5.388 9.328 18.655 5.328a.348.348 0 01.429.234.337.337 0 01-.235.419 22.654 22.654 0 01-6.552 1.041z" fill="#8073EC"/><path d="M95.217 111.656s12.154 35.433 19.808 62.906c6.124 21.788 24.83 75.978 24.83 75.978l-32.831 16.227-37.76-90.828 4.746-59.394 21.207-4.889z" fill="#F26A2B"/><path d="M57.029 113.82s-3.317 24.493-4.674 37.137c-1.358 12.644-2.348 33.535-3.5 38.464-1.154 4.929-17.952 62.456-17.952 62.456a80.658 80.658 0 0019.247 6.246c10.267 1.816 19.513 2.715 19.513 2.715s18.523-50.966 20.778-69.397c2.255-18.43-8.062-71.988-8.062-71.988l-25.35-5.633z" fill="#F26A2B"/><path d="M85.88 213.332h-.103a.34.34 0 01-.225-.429c9.318-28.871 1.113-67.702 1.021-68.09a.336.336 0 01.143-.347l8.41-5.929a.348.348 0 01.536.201.328.328 0 01-.139.35l-8.225 5.786c.663 3.215 7.909 40.311-1.092 68.213a.36.36 0 01-.327.245zm-25.984-76.254a8.964 8.964 0 01-.867 0 .35.35 0 01-.306-.378.337.337 0 01.377-.296c6.123.684 7.41-6.521 7.46-6.827a.338.338 0 01.388-.286.348.348 0 01.286.388c-.02.03-1.306 7.399-7.338 7.399z" fill="#fff"/><path d="M109.882 77.897s5.215-1.725 7.97-4.46c2.756-2.735 5.787-8.715 5.787-8.715l12.736 3.327s0 22.451-13.267 31.32c-12.583 8.409-23.9 5.266-23.9 5.266l10.674-26.738z" fill="#F5C2A2"/><path d="M74.715 65.487s-11.961-.398-18.146 5.195c-6.184 5.592-2.122 54.435-2.122 54.435s16.114 1.347 27.656 0c11.542-1.347 16.778-3.133 16.778-3.133s1.347-44.904-1.715-50.343c-3.061-5.44-22.451-6.154-22.451-6.154z" fill="#5FCF86"/><path d="M61.06 67.895a41.628 41.628 0 00-20.962 13.267 51.232 51.232 0 00-10.134 21.809s9.103-3.143 14.288-3.061c5.184.081 11.95 2.367 11.95 2.367l4.858-34.382z" fill="#5FCF86"/><path d="M87.583 44.597s5.45-8.715 1.143-10.715c-4.306-2-9.613 2.735-9.613 2.735s-9.746.663-13.583 5.766c-3.837 5.102 5.102 14.46 5.102 14.46l16.951-12.246z" fill="#000"/><path d="M72.306 58.854l-.765 8.95s1.398 2.715 6.603 3.582c3.867.643 5.316-.122 5.316-.122l-.163-4.572-.163-4.47-9.277-2.878-1.551-.49z" fill="#F5C2A2"/><path d="M73.857 59.344c.017.303.079.602.184.888 1.633 4.633 7.021 6.062 9.256 6.46l-.163-4.47-9.277-2.878z" fill="#000"/><path d="M86.859 41.995s3.745 11.613 1.367 17.736c-2.377 6.123-7.98 4.521-11.225 2.97a11.368 11.368 0 01-4.664-3.807 4.817 4.817 0 01-5.103-2.408c-1.827-3.174-.173-6.45 1.715-7.042 1.887-.592 3.928.929 3.928.929l-1.367-3.398s8.715-15.768 15.349-4.98z" fill="#F5C2A2"/><path d="M72.112 55.129a.357.357 0 01-.224-.082L68.1 51.802a.34.34 0 11.44-.52l3.785 3.245a.336.336 0 01-.214.602z" fill="#000"/><path d="M68.438 54.761a.338.338 0 01-.061-.673l2.715-.46a.336.336 0 01.398.276.347.347 0 01-.286.398l-2.705.46h-.06zm10.552-8.694a.318.318 0 01-.224-.092.347.347 0 010-.49 2.745 2.745 0 013.572-.602.347.347 0 01.102.47.367.367 0 01-.48.102 2.041 2.041 0 00-2.694.5.366.366 0 01-.276.112zm8.716.306a.357.357 0 01-.235-.092 1.775 1.775 0 00-1.97-.367.347.347 0 01-.459-.164.347.347 0 01.163-.46 2.47 2.47 0 012.746.501.335.335 0 010 .48.316.316 0 01-.245.102zm-2.225 8.389h-.153a.357.357 0 01-.153-.46c.939-1.867-1.02-4.225-1.02-4.245a.338.338 0 01.244-.58.35.35 0 01.245.1c.092.102 2.286 2.725 1.153 4.99a.357.357 0 01-.316.195zm1.827-4.092a.337.337 0 01-.337-.276l-.388-2.103a.347.347 0 01.276-.397.347.347 0 01.398.275l.388 2.102a.347.347 0 01-.276.398h-.061zm-5.674-.368a.337.337 0 01-.337-.276l-.388-2.102a.347.347 0 11.674-.122l.388 2.102a.348.348 0 01-.276.398h-.061z" fill="#000"/><path d="M87.583 44.597a3.775 3.775 0 00-3.061-2.041 4.858 4.858 0 00-3.674 1.255s.663 3.847-2.541 5.582a7.42 7.42 0 01-5.511 1.02l-2.133-.969-1.347-3.357 6.96-6.317 8.644-3.735 3.878 4.163-1.215 4.399zm-3.897 13.838a7.81 7.81 0 01-2.214-.323c-.65-.204-1.152-.49-1.441-.822a.098.098 0 01-.03-.071c0-.025.012-.049.035-.071a.294.294 0 01.097-.058.894.894 0 01.453-.028c.098.02.174.057.212.102.245.264.655.49 1.181.65.526.161 1.145.25 1.78.254a.76.76 0 01.286.054c.077.034.123.079.129.127 0 .048-.042.095-.117.13a.724.724 0 01-.285.056h-.086zM57.498 69.018s1.674 12.134.204 20.778c-1.571 9.185-6.745 21.615-6.745 21.615l2.898 4.49a17.07 17.07 0 005.684-4.694c2.572-3.633 7.634-14.757 7.634-28.503 0-13.747-.96-16.717-.96-16.717s-6.888 1.276-8.715 3.031z" fill="#000"/><path d="M94.319 69.273s6.439 3.511 12.083 4.49c5.643.98 9.124 1.399 9.124 1.399s-.582 15.002 0 22.452c.581 7.449.867 8.786.867 8.786s-15.92 2.297-20.125-3.48c-4.204-5.776-1.95-33.647-1.95-33.647z" fill="#5FCF86"/><path d="M31.046 102.594s-8.603 24.105 5.725 27.003c14.328 2.898 22.727-28.228 22.727-28.228l-9.99-4.898L44.22 99.9s-9.47.653-13.175 2.694z" fill="#F5C2A2"/><path d="M49.507 96.47s.582-5.735 1.164-8.367a9.594 9.594 0 013.184-4.654s2.939-3.133 4.194-3.174c1.255-.04 2.317 2.041 2.317 2.041s5.103 2.551 6.807 4.082c1.704 1.531 2.888 5.45 2.163 7.144-.724 1.694-2.602 4.858-3.755 4.082-1.154-.776-1.02-3.419-1.02-3.419s-3.369 8.858-9.298 9.665c-5.93.806-5.756-7.4-5.756-7.4z" fill="#F5C2A2"/><path d="M85.88 66.732s3.877 4.41 7.204 13.522c3.327 9.114 6.123 26.187 6.123 26.187s.092-26.472-1.357-32.657c-1.45-6.184-11.97-7.052-11.97-7.052zm-33.525 20.86h-.123a.347.347 0 01-.194-.439l1.5-3.817a.316.316 0 01.44-.193.337.337 0 01.193.438l-1.49 3.817a.348.348 0 01-.326.194zm12.246 6.981a.204.204 0 01-.112 0 .317.317 0 01-.225-.317v-2.133a.347.347 0 01.684 0v1.194l1.184-1.408a.34.34 0 01.562.063.34.34 0 01-.042.376l-1.786 2.082a.347.347 0 01-.265.143z" fill="#000"/><path d="M80.572 71.978a13.705 13.705 0 01-9.276-3.919.327.327 0 010-.48.335.335 0 01.48 0c0 .051 4.745 5.032 11.582 3.368a.325.325 0 01.409.245.337.337 0 01-.245.419c-.965.24-1.955.363-2.95.367z" fill="#fff"/><path d="M120.363 52.588s8.991-3.062 8.021.224c-.684 2.286-4.255 2.643-4.255 2.643s4.357 13.349 2.571 14.675c-3.449 2.562-8.848-10.154-6.337-17.542z" fill="#F5C2A2"/><path d="M145.498 54.813s-6.123 14.838-13.552 16.583c-4.766 1.123-10.93-8.164-10.93-8.164l7.858-8.103 16.624-.316z" fill="#F5C2A2"/><path d="M137.519 40.332l-9.206-.855a1.876 1.876 0 00-2.043 1.695l-1.939 20.862a1.878 1.878 0 001.696 2.044l9.206.855a1.878 1.878 0 002.043-1.696l1.939-20.861a1.877 1.877 0 00-1.696-2.044z" fill="#000"/><path d="M136.098 40.212l-9.207-.856a1.878 1.878 0 00-2.043 1.696l-1.939 20.861a1.878 1.878 0 001.696 2.044l9.206.856a1.878 1.878 0 002.044-1.696l1.939-20.862a1.878 1.878 0 00-1.696-2.043z" fill="#F7FBFF"/><path d="M130.925 61.15a1.439 1.439 0 11-1.265-1.725 1.522 1.522 0 011.265 1.725z" fill="#000"/><path d="M142.304 53.384s5.521-.551 3.868-3.062c-1.653-2.51-11.624-3.929-12.736-.959-1.113 2.97 8.868 4.021 8.868 4.021z" fill="#F5C2A2"/><path d="M141.641 57.925s5.521-.55 3.858-3.112c-1.664-2.562-11.614-3.92-12.727-.96-1.112 2.96 8.869 4.072 8.869 4.072z" fill="#F5C2A2"/><path d="M138.385 61.69a7.053 7.053 0 003.674.307c1.092-.224 2.041-.755 1.521-2.041-1.021-2.48-9.542-5.174-10.95-2.755-1.052 1.837 3.418 3.673 5.755 4.49z" fill="#F5C2A2"/><path d="M143.631 52.72l-7.664-.683a.345.345 0 01-.306-.378.358.358 0 01.367-.306l7.634.684a.35.35 0 01.287.341.349.349 0 01-.287.342h-.031zm-1.306 4.726l-7.665-.694a.328.328 0 01-.306-.368.347.347 0 01.236-.293.34.34 0 01.132-.013l7.633.684a.345.345 0 010 .684h-.03z" fill="#000"/><path d="M120.363 52.588s7.144-3.715 8.021.224c.49 2.266-6.123 4.501-6.123 4.501l-1.898-4.725z" fill="#F5C2A2"/></g><g clip-path="url(#clip1_1689_84249)"><path d="M12.421 51.165l43.556-10.83a3.77 3.77 0 002.749-4.567L53.165 13.4a3.77 3.77 0 00-4.569-2.749L5.041 21.481a3.77 3.77 0 00-2.75 4.568l5.562 22.367a3.77 3.77 0 004.568 2.75z" fill="#5CB3FF"/><path d="M48.911 38.819l7.706 11.1-17.293-7.335 9.587-3.765z" fill="#5CB3FF"/><path d="M46.98 21.106l-35.625 8.858a1.331 1.331 0 01-.64-2.575l35.606-8.853a1.331 1.331 0 01.64 2.575l.02-.005zm1.634 6.572L12.99 36.536a1.331 1.331 0 01-.64-2.574l35.606-8.853a1.331 1.331 0 01.64 2.574l.02-.005zm1.679 6.752l-35.625 8.858a1.33 1.33 0 01-.64-2.574l35.606-8.853a1.331 1.331 0 01.64 2.574l.019-.005z" fill="#fff"/></g><defs><clipPath id="clip0_1689_84249"><path fill="#fff" transform="translate(21.565 33.392)" d="M0 0h155.151v260.542H0z"/></clipPath><clipPath id="clip1_1689_84249"><path fill="#fff" transform="rotate(-13.962 92.112 5.513)" d="M0 0h52.422v40.043H0z"/></clipPath></defs></svg>